<svg width="26" height="40" viewBox="0 0 26 40" fill="none" xmlns="http://www.w3.org/2000/svg">
<path fill-rule="evenodd" clip-rule="evenodd" d="M16.1747 21.6512L24.9713 35.5341C25.624 36.5733 25.7494 37.4632 25.3469 38.204C24.9449 38.9452 24.126 39.3158 22.8905 39.3158H2.74456C1.50889 39.3158 0.689852 38.9452 0.28762 38.204C-0.114613 37.4632 0.0107672 36.573 0.663453 35.5339L9.45965 21.651V14.6655L9.4868 12.5641H16.1535L16.1747 14.6655V21.6512ZM11.3484 22.8413L7.17911 28.9743H18.4612L14.2859 22.8413L13.9363 22.2984V21.6508V14.6653H11.6981V21.6508V22.2984L11.3484 22.8413Z" fill="#4E53FF"/>
<rect x="5.1709" y="5.17688" width="4.13677" height="4.1415" rx="2.06838" fill="#4E53FF"/>
<rect x="15.5127" y="5.17688" width="4.13677" height="4.1415" rx="2.06838" fill="#4E53FF"/>
<rect x="11.376" width="3.10258" height="3.10613" rx="1.55129" fill="#4E53FF"/>
<rect x="7.17871" y="12.3077" width="11.2821" height="2.5641" rx="1.28205" fill="#4E53FF"/>
</svg>
