<svg width="13" height="12" viewBox="0 0 13 12" fill="none" xmlns="http://www.w3.org/2000/svg">
<path id="Path" d="M7.10122 6.00012L11.8125 1.28108C12.1052 0.988138 12.1052 0.512831 11.8125 0.219892C11.5198 -0.0732973 11.0458 -0.0732973 10.7531 0.219892L6.04178 4.93894L1.33024 0.219892C1.03753 -0.0732973 0.563507 -0.0732973 0.2708 0.219892C-0.0219073 0.512831 -0.0219073 0.988138 0.2708 1.28108L4.98234 6.00012L0.2708 10.7192C-0.0219073 11.0121 -0.0219073 11.4874 0.2708 11.7804C0.417154 11.9267 0.608962 12 0.800521 12C0.992079 12 1.18389 11.9267 1.33024 11.7801L6.04178 7.06106L10.7531 11.7801C10.8994 11.9267 11.0912 12 11.2828 12C11.4744 12 11.6662 11.9267 11.8125 11.7801C12.1052 11.4872 12.1052 11.0119 11.8125 10.7189L7.10122 6.00012Z" fill="#AFAFAF"/>
</svg>
