<svg width="35" height="35" viewBox="0 0 35 35" fill="none" xmlns="http://www.w3.org/2000/svg">
<path opacity="0.5" fill-rule="evenodd" clip-rule="evenodd" d="M17.5001 35.0002C27.1651 35.0002 35.0002 27.1651 35.0002 17.5001C35.0002 7.83505 27.1651 0 17.5001 0C7.83505 0 0 7.83505 0 17.5001C0 27.1651 7.83505 35.0002 17.5001 35.0002Z" fill="white"/>
<path d="M15.2288 12.8324C15.2288 13.2151 15.2288 14.9233 15.2288 14.9233H13.697V17.4799H15.2288V25.0775H18.3755V17.4801H20.487C20.487 17.4801 20.6848 16.2542 20.7807 14.9138C20.5058 14.9138 18.3874 14.9138 18.3874 14.9138C18.3874 14.9138 18.3874 13.4264 18.3874 13.1657C18.3874 12.9044 18.7305 12.553 19.0696 12.553C19.408 12.553 20.1224 12.553 20.784 12.553C20.784 12.2049 20.784 11.0022 20.784 9.89136C19.9007 9.89136 18.8959 9.89136 18.453 9.89136C15.151 9.89118 15.2288 12.4504 15.2288 12.8324Z" fill="#1F2532"/>
</svg>
