<svg width="21" height="20" viewBox="0 0 21 20" fill="none" xmlns="http://www.w3.org/2000/svg">
<path opacity="0.25" fill-rule="evenodd" clip-rule="evenodd" d="M15.5637 12.815L19.3121 9.06173C21.3812 6.98887 21.3812 3.62765 19.3121 1.55474C17.242 -0.518248 13.8867 -0.518248 11.8167 1.55474L8.97715 4.39871C10.1113 4.23225 11.2763 4.34563 12.3576 4.76735L13.6902 3.43125C14.724 2.39648 16.4048 2.39648 17.4374 3.43125C18.4714 4.46602 18.4714 6.14954 17.4374 7.18509L13.6902 10.9382C12.6576 11.9725 10.9763 11.9739 9.94315 10.9382C9.61962 10.6141 9.40942 10.2241 9.28901 9.81201C9.27025 9.82285 9.25132 9.83337 9.23239 9.8439C9.15277 9.88818 9.07318 9.93244 9.00629 10L7.2646 11.7443C7.48852 12.1226 7.7435 12.4894 8.06943 12.815C10.1386 14.8883 13.4948 14.8883 15.5637 12.815ZM8.06938 16.5694L9.40287 15.2333C10.4833 15.6543 11.6486 15.7686 12.7834 15.6012L9.94311 18.4458C7.87347 20.5181 4.51776 20.5181 2.44809 18.4458C0.378632 16.3723 0.378632 13.0121 2.44809 10.9385L6.19523 7.18518C8.2649 5.11219 11.6214 5.11219 13.6901 7.18518C14.0161 7.51107 14.2724 7.87656 14.4949 8.25631L12.7533 9.99996C12.6878 10.0657 12.6108 10.1086 12.5327 10.152C12.5123 10.1634 12.4918 10.1748 12.4714 10.1866C12.3498 9.77512 12.1394 9.38512 11.8166 9.06173C10.7835 8.02626 9.10333 8.02626 8.06938 9.06173L4.32168 12.815C3.28848 13.8502 3.28848 15.5337 4.32168 16.5694C5.35497 17.6037 7.03627 17.6037 8.06938 16.5694Z" fill="#241F3A"/>
</svg>
