<svg width="35" height="40" viewBox="0 0 35 40" fill="none" xmlns="http://www.w3.org/2000/svg">
<path d="M2.53606 0H23.727L34.9592 11.1885V37.4114C34.9592 38.7893 33.8419 39.9054 32.4651 39.9054H2.53606C1.15928 39.9054 0.0419922 38.7893 0.0419922 37.4114V2.49406C0.0419922 1.11613 1.15941 0 2.53606 0Z" fill="#E2574C"/>
<path d="M34.9236 11.2234H26.2304C24.8536 11.2234 23.7363 10.1061 23.7363 8.72929V0.0249023L34.9236 11.2234Z" fill="#B53629"/>
<path fill-rule="evenodd" clip-rule="evenodd" d="M11.2683 17.4735H9.54366C9.05605 17.4735 8.78418 17.7952 8.78418 18.2841V24.1315C8.78418 24.6528 9.09592 24.9421 9.51489 24.9421C9.93386 24.9421 10.2456 24.6528 10.2456 24.1315V22.4243H11.3268C12.6611 22.4243 13.7622 21.479 13.7622 19.9588C13.7624 18.4712 12.6999 17.4735 11.2683 17.4735ZM17.5621 17.4735H15.8212C15.3486 17.4735 15.0131 17.7978 15.0131 18.2791V24.1365C15.0131 24.7338 15.4957 24.9209 15.8411 24.9209H17.6681C19.8304 24.9209 21.2582 23.4981 21.2582 21.3019C21.2571 18.98 19.9128 17.4735 17.5621 17.4735ZM25.6043 18.9089C26.0221 18.9089 26.2266 18.5448 26.2266 18.1919C26.2266 17.8264 26.0133 17.4735 25.6043 17.4735H23.225C22.7598 17.4735 22.5004 17.8588 22.5004 18.2841V24.1315C22.5004 24.6528 22.7972 24.9421 23.1988 24.9421C23.5979 24.9421 23.8959 24.6528 23.8959 24.1315V22.5266H25.335C25.7815 22.5266 26.0047 22.1612 26.0047 21.7983C26.0047 21.443 25.7815 21.0899 25.335 21.0899H23.8959V18.9089H25.6043ZM16.5844 23.4769H17.6457C18.9999 23.4769 19.6185 22.4843 19.6185 21.2297C19.6185 19.8892 18.9888 18.9177 17.541 18.9177H16.5844V23.4769ZM10.2457 21.0526H11.2397C11.8532 21.0526 12.2422 20.5738 12.2435 19.9502C12.2435 19.3254 11.8532 18.8466 11.2397 18.8466H10.2457V21.0526Z" fill="white"/>
</svg>
